<svg width="202" height="48" viewBox="0 0 202 48" fill="none" xmlns="http://www.w3.org/2000/svg">
<g id="Group 1">
<g id="Group">
<path id="Vector" d="M38.4572 35.6733L58.1138 23.4618L38.4521 11.3754" fill="#E20F23"/>
<path id="Vector_2" d="M38.4521 11.3754L19.6416 0L0 12.2366L18.7053 23.667" fill="#F25E57"/>
<path id="Vector_3" d="M37.8813 11.7109L18.7053 23.667V24.353V48L38.4571 35.6733V35.5431L38.4521 12.0613V11.3754L37.8813 11.7109Z" fill="#F09B95"/>
</g>
<g id="Group_2">
<path id="Vector_4" d="M131.218 21.3589C129.696 21.3589 128.399 21.4841 127.337 21.7344C126.271 21.9848 125.24 22.4554 124.243 23.1463C123.607 23.5919 123.097 24.1978 122.706 24.9738C122.316 25.7499 122.125 26.4808 122.125 27.1768V39.5936H116.272V16.5474H122.125V18.9557C123.397 18.0144 124.819 17.3234 126.381 16.8778C127.943 16.4372 129.56 16.2119 131.218 16.2119V21.3639V21.3589Z" fill="white"/>
<path id="Vector_5" d="M201.248 21.3589C199.726 21.3589 198.429 21.4841 197.367 21.7344C196.301 21.9848 195.27 22.4554 194.273 23.1463C193.637 23.5919 193.127 24.1978 192.736 24.9738C192.346 25.7499 192.155 26.4808 192.155 27.1768V39.5936H186.302V16.5474H192.155V18.9557C193.427 18.0144 194.849 17.3234 196.411 16.8778C197.973 16.4372 199.59 16.2119 201.248 16.2119V21.3639V21.3589Z" fill="white"/>
<path id="Vector_6" d="M75.8628 22.4754H82.2415V17.8692H75.8628V11.9662L66.0596 21.399V22.4754H70.2953V32.9246C70.2953 37.2404 72.5484 39.5886 77.46 39.5886H82.2465V34.1112H78.932C77.0845 34.1112 75.8678 33.5504 75.8678 31.4826V22.4704L75.8628 22.4754Z" fill="white"/>
<path id="Vector_7" d="M150.254 9.6781V19.3662C148.321 17.8291 145.878 16.9079 143.214 16.9079C136.951 16.9079 131.874 21.9848 131.874 28.2482C131.874 34.5117 136.951 39.5886 143.214 39.5886C145.878 39.5886 148.321 38.6624 150.254 37.1303V39.5886H156.382V9.6781H150.254ZM144.225 34.2163C140.901 34.2163 138.202 31.5227 138.202 28.1932C138.202 24.8637 140.896 22.17 144.225 22.17C147.555 22.17 150.249 24.8637 150.249 28.1932C150.249 31.5227 147.555 34.2163 144.225 34.2163Z" fill="white"/>
<path id="Vector_8" d="M101.332 16.5624C94.9736 16.5624 89.8167 21.7194 89.8167 28.078C89.8167 34.4366 94.9736 39.5936 101.332 39.5936C107.691 39.5936 112.848 34.4366 112.848 28.078C112.848 21.7194 107.691 16.5624 101.332 16.5624ZM101.332 34.2664C97.9126 34.2664 95.1389 31.4926 95.1389 28.073C95.1389 24.6534 97.9126 21.8796 101.332 21.8796C104.752 21.8796 107.526 24.6534 107.526 28.073C107.526 31.4926 104.752 34.2664 101.332 34.2664Z" fill="white"/>
<path id="Vector_9" d="M182.787 29.53C182.848 29.0543 182.888 28.5687 182.888 28.078C182.888 21.7194 177.731 16.5624 171.372 16.5624C165.013 16.5624 159.856 21.7194 159.856 28.078C159.856 34.4366 165.013 39.5936 171.372 39.5936C176.419 39.5936 180.695 36.3392 182.252 31.8231H176.299C175.167 33.3101 173.385 34.2714 171.372 34.2714C168.453 34.2714 166.01 32.2487 165.359 29.525H177.39C177.39 29.525 177.39 29.525 177.39 29.53H182.787ZM171.377 21.8846C173.88 21.8846 176.033 23.3766 177.01 25.5145H165.744C166.721 23.3766 168.874 21.8846 171.377 21.8846Z" fill="white"/>
<g id="Group_3">
<path id="Vector_10" d="M87.8741 12.0413C87.5987 11.9061 87.2883 11.831 86.9628 11.831C85.8113 11.831 84.875 12.7673 84.875 13.9189C84.875 14.4295 85.0602 14.8952 85.3657 15.2607C85.3657 15.2607 85.3907 15.2857 85.4007 15.3007C85.4057 15.3107 85.4157 15.3157 85.4207 15.3258C88.2646 18.5952 85.0853 21.1286 85.0853 21.1286C85.0853 21.1286 85.3256 21.4991 85.4308 21.6643C90.6829 20.0872 90.3224 13.1979 87.8691 12.0463L87.8741 12.0413Z" fill="#E20F23"/>
<path id="Vector_11" d="M85.4859 21.7344C85.4859 21.7344 85.4658 21.7044 85.4358 21.6593L85.4859 21.7344Z" fill="#E20F23"/>
</g>
</g>
</g>
</svg>
